<svg xmlns="http://www.w3.org/2000/svg" width="80" height="78.031" viewBox="0 0 80 78.031">
  <defs>
    <style>
      .cls-1 {
        fill: #7cc623;
        stroke: #588d17;
        stroke-width: 1px;
        fill-rule: evenodd;
      }
    </style>
  </defs>
  <path id="Forma_316_1" data-name="Forma 316 1" class="cls-1" d="M10.306,52.037C7.191,41.872,3.188,32.782,8.245,20.926,17.655-1.14,41.66,2.046,47.407,2.259S51.53,29.222,51.53,29.222C59.889,13.884,65.958,8.481,65.958,8.481c12.858,4.888,19.7,36.493,8.245,49.778S41.053,73.882,28.857,72.778,0,79,0,79c1.013-.757,3.661-4.761,6.184-8.3C11.359,63.449,10.5,52.673,10.306,52.037ZM48,37c1.839-1.616-6.222,5.853-17,16-5.62,5.29-11.85,11-18,17M40,31s-3.111-7.8-5-13M31,37L23,26M20,53l-2-4M32,62l11,3m1-18,18,4" transform="translate(0 -1.469)"/>
</svg>
