<?xml version="1.0" encoding="iso-8859-1"?>
<svg version="2" xmlns="http://www.w3.org/2000/svg" xmlns:xlink="http://www.w3.org/1999/xlink" x="0" y="0" width="90" height="90"
 viewBox="0 0 60 60" xml:space="preserve">
  <defs>
    <style>
      .cls-1 {
        fill-rule: evenodd;
      }
    </style>
  </defs>
  <path id="koi2" data-name="koi2" class="cls-1" d="M30.789,14.971c-0.759,1.287-.581,2.257-2.764,1.444-1.248-.465-3.2-2.885-3.2-2.885l-0.1.216c-0.487,2.12-3.458,6.893-3.458,6.893l-0.007.145a9.6,9.6,0,0,1,2.061,4.6c0.2,2.517-1.689-.752-1.926-1.511a13.685,13.685,0,0,1-.3-2.01c-0.076-.767-0.137.674-0.163,0.824,0,0-.5,4.6,1.361,6.448s5.315,5.025,5.02,7.913-3.7-1.649-5.794-1.008c-2.175.272-3.451,5.809-4.887,3.291s0.438-6.833,1.389-9.283S16.655,23.6,16.655,23.6c-0.084-.126-0.721-1.418-0.481-0.686a13.659,13.659,0,0,1,.537,1.96c0.09,0.79-.312,4.549-1.149,2.168A9.631,9.631,0,0,1,15.585,22l-0.065-.13s-0.752-6-1.239-8.12l-0.1-.216s-1.955,2.42-3.2,2.885c-2.183.813-2.005-.157-2.764-1.444s0.922-3.292,2.764-2.888a10.751,10.751,0,0,0,2.969.137,4.534,4.534,0,0,0-.088-0.788C11.708-.738,19.5,0,19.5,0s7.792-.738,5.643,11.432a4.534,4.534,0,0,0-.088.788,10.751,10.751,0,0,0,2.969-.137C29.867,11.679,31.548,13.684,30.789,14.971Z"/>
</svg>
