<svg xmlns="http://www.w3.org/2000/svg" width="60" height="120" viewBox="0 0 44 80">
  <defs>
    <style>
      .cls-1 {
        fill-rule: evenodd;
      }
    </style>
  </defs>
  <path id="koi1" data-name="koi1" class="cls-1" d="M28.958,17.3c-1.453-.248-2.28.269-2.313-2.075a1.772,1.772,0,0,0-1.222-1.684l-0.1.216C24.839,15.88,23.994,21.8,23.994,21.8l-0.062.131a9.738,9.738,0,0,1,.131,5.052c-0.778,2.4-1.257-1.352-1.184-2.144a13.812,13.812,0,0,1,.49-1.973c0.222-.737-0.381.569-0.462,0.7,0,0-2.2,4.052-1.21,6.482s2.942,6.707,1.574,9.258-2.749-2.962-4.909-3.186c-2.09-.6-5.362,4.019-5.716,1.135s3-6.137,4.8-8.028,1.21-6.482,1.21-6.482c-0.029-.149-0.119-1.589-0.179-0.821a13.83,13.83,0,0,1-.255,2.018c-0.218.764-2.015,4.077-1.874,1.554a9.663,9.663,0,0,1,1.942-4.652l-0.01-.145s-2.817-4.817-3.3-6.939l-0.1-.216s-2.941,2.788-4.23,2.51c-2.255-.486-1.6-1.211-1.555-2.709s2.5-2.29,3.833-.957c0.723,0.724.9-.092,1.721-0.156a4.589,4.589,0,0,0-.087-0.788C12.436-.738,20.152,0,20.152,0s7.716-.738,5.589,11.442a4.575,4.575,0,0,0-.087.788c0.822,0.063,4.409.571,4.968,1.432C31.651,15.247,30.41,17.55,28.958,17.3Z"
   transform=""/>
</svg>
