<?xml version="1.0" encoding="UTF-8" standalone="no"?>
<svg
   xmlns:dc="http://purl.org/dc/elements/1.1/"
   xmlns:cc="http://creativecommons.org/ns#"
   xmlns:rdf="http://www.w3.org/1999/02/22-rdf-syntax-ns#"
   xmlns:svg="http://www.w3.org/2000/svg"
   xmlns="http://www.w3.org/2000/svg"
   viewBox="0 0 793.33331 1122.6667"
   height="200"
   width="200"
   xml:space="preserve"
   id="svg2"
   version="1.1"><metadata
     id="metadata8"><rdf:RDF><cc:Work
         rdf:about=""><dc:format>image/svg+xml</dc:format><dc:type
           rdf:resource="http://purl.org/dc/dcmitype/StillImage" /></cc:Work></rdf:RDF></metadata><defs
     id="defs6"><clipPath
       id="clipPath18"
       clipPathUnits="userSpaceOnUse"><path
         id="path16"
         d="M 0,842 H 595 V 0 H 0 Z" /></clipPath></defs><g
     transform="matrix(1.3333333,0,0,-1.3333333,0,1122.6667)"
     id="g10"><g
       id="g12"><g
         clip-path="url(#clipPath18)"
         id="g14"><path
           id="path20"
           style="fill:#267f3a;fill-opacity:1;fill-rule:nonzero;stroke:none"
           d="m 449.915,387.781 c -3.069,-2.205 -6.853,-3.678 -9.387,-6.547 0.569,-1.085 1.799,-1.627 2.438,-2.543 -4.881,-2.045 -12.22,-1.103 -13.821,-7.101 0.376,-2.474 2.89,-2.955 4.154,-4.356 -5.45,-2.412 -14.747,-0.194 -17.67,-7.291 -0.306,-2.593 2.246,-3.927 3.203,-6.03 -8.251,0.29 -17.228,1.321 -24.86,-4.115 -2.362,-8.181 2.52,-18.506 7.638,-24.957 -3.083,-5.558 2.348,-11.307 4.619,-15.656 1.698,-1.388 3.293,-2.504 4.819,-3.806 -9.036,-1.475 -18.952,3.117 -28.601,3.599 -0.81,-0.9 0.089,-1.714 -0.727,-2.61 -6.235,1.075 -12.967,7.191 -18.888,3.72 -2.061,-1.813 -2.266,-4.649 -2.329,-7.148 -3.012,2.174 -5.826,3.412 -9.643,4.257 -5.213,-0.418 -5.908,-5.775 -5.64,-9.457 -1.315,-2.983 6.1,-14.214 -0.427,-9.036 -2.368,4.608 -7.109,6.694 -10.951,9.862 -0.656,-0.545 -1.359,-0.239 -2.112,-0.532 -3.426,5.072 -6.629,11.097 -12.475,13.049 -1.895,-0.006 -1.965,-2.067 -3.586,-2.401 -4.052,9.332 -8.73,19.152 -15.749,26.028 -7.014,-0.684 -1.899,7.111 -4.379,10.522 -2.508,5.714 -4.288,14.041 -10.966,15.522 -1.994,4.023 -6.02,9.153 -11.275,9.581 -9.824,-17.037 -16.878,-36.347 -19.441,-54.498 -0.851,-1.93 -3.04,-1.18 -4.673,-1.084 -0.779,0.13 -1.322,0.787 -1.873,1.448 3.668,18.291 10.05,37.486 20.123,54.626 0.111,1.215 -0.482,2.725 -1.545,3.624 -18.888,7.076 -36.375,-5.96 -55.784,-7.67 -4.128,0.146 -6.875,-7.029 -9.944,-2.106 -3.66,1.184 -7.425,0.753 -11.002,0.24 -0.609,1.942 2.249,3.196 0.109,4.985 -3.34,3.357 -9.636,-1.409 -9.961,3.549 -5.434,0.511 -10.826,0.173 -16.125,1.455 3.63,3.012 7.785,7.676 7.941,13.267 -0.373,2.466 -0.59,5.289 -2.329,7.527 -5.66,3.335 -11.352,3.747 -17.271,5.518 1.066,2.888 5.635,4.224 5.351,8.329 -1.937,4.628 -7.606,6.496 -12.226,7.91 1.809,1.713 2.593,4.935 0.53,6.899 -2.189,2.636 -6.085,1.418 -8.274,4.064 0.862,0.04 0.791,1.329 1.277,1.939 -7.393,7.47 -15.934,13.752 -23.416,21.032 10.442,-2.93 21.074,-2.591 31.679,0.069 0.794,8.452 8.408,0.06 12.628,3.44 3.354,3.342 8.449,-0.793 12.839,2.508 3.714,1.297 3.535,5.146 2.687,8.456 -3.188,10.838 -9.735,18.34 -15.376,26.9 3.794,-0.423 9.575,-1.081 12.313,2.744 1.872,5.668 -2.094,11.4 -3.922,17.235 2.004,-0.668 5.08,1.536 5.051,3.853 1.212,3.238 -6.04,9.58 1.264,9.503 4.645,13.876 -5.07,28.431 -3.504,42.419 7.303,-9.095 16.694,-18.684 29.315,-20.483 1.219,-3.89 4.257,-7.949 8.825,-8.502 4.087,0.708 4.933,4.532 6.58,7.784 0.733,-6.399 5.308,-12.193 11.565,-13.696 2.855,1.257 6.518,1.947 7.377,5.339 2.546,-4.686 4.434,-9.916 9.852,-11.885 4.1,2.168 7.731,5.172 9.396,9.891 6.672,-11.96 2.429,-27.27 12.642,-37.856 1.499,-0.868 3.266,-0.18 4.782,0.409 3.825,6.285 2.868,13.614 0.826,20.378 -0.392,1.02 2.253,1.313 2.696,2.799 -0.641,6.15 -1.534,12.207 -2.425,18.256 3.832,-3.165 9.629,-5.721 14.409,-4.884 5.523,1.12 7.214,6.871 8.624,11.488 5.311,3.951 8.329,10.79 11.54,17.125 3.387,-6.104 4.095,-19.202 13.91,-17.873 7.567,3.369 13.866,8.132 19.806,13.058 0.818,-2.879 4.647,-3.726 6.574,-4.575 5.487,0.091 11.096,3.276 13.336,8.369 6.241,0.389 10.433,6.079 15.251,9.408 5.169,5.05 11.869,8.381 16.762,13.767 -2.341,-10.07 -6.635,-22.639 -6.431,-34.042 0.664,0.542 1.467,-0.024 2.208,0.699 -0.364,-5.085 -5.539,-11.594 -0.76,-16.432 0.919,-1.249 2.737,-1.415 4.231,-2.29 -4.358,-7.5 -6.84,-16.47 -1.806,-23.091 4.352,-1.075 9.112,1.642 13.005,2.856 -4.747,-8.382 -11.792,-19.112 -8.589,-28.482 5.009,-2.422 10.338,1.089 14.243,3.777 -4.416,-17.128 -18.544,-26.831 -27.056,-40.884 3.439,-3.616 9.24,-2.816 13.726,-3.123 6.144,0.638 12.137,0.933 18.097,2.08 -0.811,-2.785 -8.257,-6.834 -3.925,-11.263 4.167,-2.89 8.442,-2.26 12.723,-2.051 -0.95,-1.683 -0.363,-3.194 0.403,-4.789 6.272,-3.82 13.752,-3.971 20.841,-3.117 -2.297,-2.344 -2.961,-6.244 -0.951,-8.803 12.251,-8.343 25.722,-2.966 38.772,-2.856 -8.858,-10.549 -23.713,-15.734 -30.885,-27.241" /><path
           id="path22"
           style="fill:#267f3a;fill-opacity:1;fill-rule:nonzero;stroke:none"
           d="m 447.465,388.866 c -4.436,-2.444 -9.571,-4.582 -10.708,-9.527 -3.963,-1.401 -11.231,-2.173 -9.731,-8.289 0.038,-0.849 1.288,-1.825 0.293,-2.645 -4.102,-0.284 -8.953,-1.286 -12.329,-4.199 -1.179,-2.208 -2.263,-4.658 -1.205,-7.01 -6.936,-0.51 -16.004,-1.113 -22.455,-6.237 -2.929,-8.557 3.133,-18.566 7.025,-26.364 -0.306,-5.938 2.566,-12.239 6.222,-16.779 -7.983,-0.045 -15.8,3.616 -23.648,4.349 -1.289,-0.061 -0.856,-1.93 -1.959,-2.067 -6.356,1.757 -13.726,6.894 -18.926,0.806 0.019,-7.551 -5.674,-0.018 -8.596,-1.441 -2.738,-0.479 -5.029,-0.939 -6.917,-2.834 -2.98,-3.918 -1.417,-7.957 -1.736,-12.016 -6.637,5.871 -14.517,10.807 -19.75,17.938 -2.227,1.617 -4.428,0.909 -6.776,-0.154 -5.086,9.375 -7.983,19.454 -17.338,24.839 -0.962,9.221 -5.202,22.414 -13.743,26.811 -2.677,3.905 -5.957,7.871 -11.49,8.637 -1.186,-0.323 -2.01,-1.219 -2.74,-1.94 -9.084,-18.212 -16.281,-34.522 -19.571,-53.401 -1.203,0.116 -0.603,3.398 -0.252,5.134 5.64,16.587 10.344,34.847 18.987,49.677 -4.489,9.324 -15.698,6.723 -23.585,6.426 -14.641,-6.113 -29.279,-5.101 -43.627,-11.975 -4.068,4.101 -11.662,-2.191 -12.479,5.925 -7.871,1.161 -12.552,3.861 -20.457,3.991 -0.179,0.081 -0.524,0.234 -0.878,0.39 3.449,4.971 5.229,10.902 3.752,16.581 -2.622,6.394 -10.392,7.308 -16.505,9.158 2.278,2.773 4.492,8.291 0.488,11.532 -1.977,3.593 -11.026,2.557 -8.317,8.704 -0.97,5.872 -9.955,5.01 -10.076,11.356 -4.693,4.587 -11.027,7.797 -15.484,12.904 9.001,0.435 20.646,-2.61 27.279,5.775 6.831,-2.584 12.906,3.113 19.689,1.384 3.711,1.295 7.641,3.544 7.76,8.099 -2.03,10.117 -7.9,19.623 -13.529,27.764 2.898,0.394 6.579,0.664 8.873,3.004 2.981,5.815 -0.06,11.766 -1.885,17.6 2.434,1.234 4.783,4.174 4.209,7.147 -0.511,1.698 -0.335,3.51 -1.28,5.181 7.907,8.879 1.359,21.619 -0.587,31.911 0.217,2.419 -1.091,4.664 -0.858,7.08 7.232,-5.916 15.79,-14.089 26,-17.549 2.629,-3.047 4.805,-7.15 9.53,-7.35 2.75,0.048 4.362,2.273 6.167,3.985 3.459,-4.03 6.276,-9.055 12.488,-9.698 2.801,0.661 4.827,1.438 7.338,2.851 2.579,-3.656 4.709,-8.793 9.897,-9.404 4.579,0.906 6.758,3.935 9.189,7.059 4.349,-11.985 1.194,-24.84 10.934,-34.595 2.907,-1.489 7.09,-1.026 8.934,1.728 5.625,7.995 -0.38,16.718 3.481,24.027 -0.38,4.364 -1.449,8.606 -1.48,12.804 4.255,-2.704 8.633,-2.755 12.953,-1.518 6.324,0.559 6.573,7.785 9.817,11.801 3.068,4.103 5.838,8.958 8.568,12.784 1.634,-5.33 3.568,-11.421 8.571,-13.839 9.291,-2.212 17.082,5.457 23.961,10.595 5.06,-1.814 10.401,-3.958 15.066,-0.989 11.836,7.355 22.136,16.43 33.066,24.606 -1.282,-9.079 -4.013,-18.135 -4.441,-27.172 3.089,-3.464 -0.242,-9.111 0.753,-13.538 8.939,-5.827 -2.77,-15.752 1.57,-23.953 1.25,-2.862 2.788,-6.054 6.464,-5.792 1.614,0.336 3.153,0.502 4.945,0.759 -2.43,-8.364 -9.654,-17.129 -4.275,-25.368 3.841,-3.161 7.594,-0.828 11.531,-0.472 -6.764,-12.945 -17.491,-22.051 -24.874,-34.51 3.555,-9.527 14.486,-4.709 21.894,-5.468 1.8,0.261 3.49,0.767 5.455,0.944 0.23,-2.819 -2.819,-7.343 1.085,-9.908 4.295,-5.446 13.496,1.171 14.639,-8.128 5.539,-2.653 11.123,-2.816 16.635,-3.149 -0.032,-2.924 0.332,-6.857 2.98,-8.447 10.67,-5.749 21.512,-4.457 32.352,-3.159 -7.644,-8.784 -20.074,-12.732 -26.353,-23.162" /><path
           id="path24"
           style="fill:#2a963f;fill-opacity:1;fill-rule:nonzero;stroke:none"
           d="m 415.712,394.061 c -3.593,-1.982 -7.753,-3.714 -8.672,-7.721 -3.21,-1.13 -9.093,-1.755 -7.881,-6.713 0.032,-0.69 1.041,-1.481 0.237,-2.142 -3.325,-0.226 -7.25,-1.037 -9.987,-3.397 -0.95,-1.79 -1.831,-3.775 -0.976,-5.68 -5.616,-0.414 -12.96,-0.906 -18.186,-5.054 -2.374,-6.929 2.539,-15.037 5.691,-21.354 -0.254,-4.809 2.081,-9.913 5.035,-13.592 -6.464,-0.035 -12.794,2.929 -19.15,3.526 -1.046,-0.052 -0.695,-1.564 -1.588,-1.678 -5.15,1.423 -11.117,5.589 -15.335,0.653 0.02,-6.115 -4.593,-0.015 -6.962,-1.165 -2.213,-0.389 -4.07,-0.762 -5.595,-2.296 -2.419,-3.175 -1.155,-6.445 -1.41,-9.731 -5.373,4.754 -11.761,8.752 -15.997,14.522 -1.807,1.316 -3.587,0.741 -5.489,-0.118 -4.122,7.591 -6.464,15.756 -14.046,20.117 -0.779,7.469 -4.212,18.155 -11.129,21.715 -2.169,3.165 -4.831,6.378 -9.31,7 -0.96,-0.261 -5.105,6.65 -22.002,4.776 -11.856,-4.954 -23.713,-4.134 -35.332,-9.702 -3.299,3.319 -9.451,-1.774 -10.108,4.799 -6.374,0.939 -10.172,3.13 -16.572,3.235 -0.146,0.064 -0.424,0.185 -0.711,0.316 2.791,4.026 4.233,8.828 3.04,13.434 -2.125,5.173 -8.423,5.915 -13.372,7.414 1.842,2.245 3.641,6.715 0.396,9.342 -1.602,2.908 -8.93,2.069 -6.735,7.048 -0.788,4.755 -8.066,4.06 -8.162,9.2 -3.802,3.713 -8.933,6.312 -12.545,10.453 7.29,0.349 16.725,-2.114 22.098,4.677 5.532,-2.093 10.452,2.519 15.946,1.12 3.006,1.048 6.19,2.869 6.289,6.561 -1.646,8.192 -6.4,15.895 -10.96,22.491 2.345,0.316 5.329,0.535 7.185,2.428 2.416,4.716 -0.047,9.533 -1.524,14.26 1.971,1.001 3.873,3.381 3.407,5.789 -0.412,1.372 -0.271,2.843 -1.037,4.193 6.403,7.196 1.101,17.513 -0.475,25.85 0.179,1.957 -0.884,3.778 -0.696,5.736 5.858,-4.792 12.791,-11.414 21.061,-14.214 2.128,-2.472 3.889,-5.794 7.718,-5.955 2.231,0.04 3.535,1.838 4.996,3.228 2.802,-3.263 5.086,-7.334 10.117,-7.854 2.269,0.531 3.909,1.163 5.945,2.305 2.086,-2.959 3.816,-7.121 8.018,-7.614 3.707,0.735 8.407,-14.404 16.3,-22.307 2.355,-1.206 5.743,-0.826 7.236,1.402 4.55,6.472 8.615,27.6 12.112,28.6 5.121,0.457 5.322,6.307 7.951,9.562 2.482,3.325 4.729,7.256 6.937,10.356 1.322,-4.318 2.891,-9.253 6.943,-11.212 7.523,-1.788 13.841,4.422 19.412,8.586 4.096,-1.469 8.423,-3.21 12.2,-0.804 9.591,5.956 17.932,13.308 26.788,19.934 -1.04,-7.357 -3.254,-14.691 -3.605,-22.013 2.508,-2.803 -0.192,-7.38 0.612,-10.963 7.249,-4.72 -2.239,-12.761 1.276,-19.407 1.016,-2.313 2.253,-4.9 5.234,-4.691 1.307,0.273 2.552,0.408 4.007,0.617 -1.972,-6.774 -7.817,-13.877 -3.465,-20.549 3.113,-2.557 6.151,-0.671 9.342,-0.381 -5.481,-10.487 -14.172,-17.86 -20.145,-27.951 2.871,-7.72 11.734,-3.816 17.732,-4.433 1.456,0.212 2.828,0.619 4.416,0.766 0.185,-2.283 -2.285,-5.947 0.88,-8.027 3.479,-4.41 10.932,0.952 11.864,-6.58 4.478,-2.149 9.004,-2.286 13.464,-2.553 -0.026,-2.369 0.268,-5.554 2.418,-6.843 8.64,-4.658 17.426,-3.607 26.207,-2.559 -6.196,-7.112 -16.265,-10.312 -21.351,-18.758" /><path
           id="path26"
           style="fill:#2ea541;fill-opacity:1;fill-rule:nonzero;stroke:none"
           d="m 371.14,403.021 c -2.303,-1.268 -4.964,-2.376 -5.552,-4.941 -2.054,-0.723 -5.819,-1.123 -5.047,-4.295 0.02,-0.442 0.67,-0.95 0.153,-1.371 -2.125,-0.146 -4.639,-0.664 -6.387,-2.176 -0.613,-1.145 -1.175,-2.412 -0.625,-3.634 -3.6,-0.264 -8.296,-0.578 -11.64,-3.232 -1.519,-4.441 1.62,-9.63 3.638,-13.669 -0.16,-3.082 1.333,-6.346 3.221,-8.7 -4.134,-0.02 -8.186,1.873 -12.252,2.256 -0.67,-0.03 -0.446,-0.999 -1.014,-1.072 -3.299,0.909 -7.12,3.573 -9.814,0.417 0.006,-3.915 -2.942,-0.009 -4.46,-0.743 -1.418,-0.252 -2.604,-0.492 -3.58,-1.471 -1.551,-2.033 -0.74,-4.125 -0.907,-6.228 -3.433,3.044 -7.522,5.6 -10.234,9.291 -1.156,0.842 -2.298,0.476 -3.51,-0.07 -2.642,4.852 -4.142,10.079 -8.993,12.874 -0.497,4.779 -2.696,11.62 -7.121,13.898 -1.391,2.023 -3.092,4.079 -5.96,4.478 -0.613,-0.168 -3.267,4.257 -14.08,3.056 -7.59,-3.169 -15.177,-2.646 -22.612,-6.208 -2.112,2.123 -6.049,-1.134 -6.469,3.071 -4.079,0.599 -6.51,2.004 -10.606,2.071 -0.096,0.041 -0.271,0.117 -0.453,0.2 1.786,2.578 2.705,5.65 1.942,8.599 -1.362,3.309 -5.388,3.785 -8.56,4.744 1.18,1.438 2.333,4.298 0.256,5.98 -1.025,1.861 -5.718,1.324 -4.308,4.51 -0.507,3.043 -5.165,2.598 -5.226,5.889 -2.431,2.375 -5.717,4.039 -8.027,6.689 4.664,0.224 10.7,-1.353 14.14,2.993 3.542,-1.339 6.688,1.613 10.207,0.718 1.924,0.67 3.959,1.834 4.023,4.199 -1.053,5.242 -4.096,10.172 -7.012,14.394 1.499,0.202 3.41,0.343 4.597,1.553 1.547,3.018 -0.029,6.102 -0.973,9.127 1.256,0.64 2.476,2.163 2.176,3.706 -0.261,0.878 -0.173,1.818 -0.664,2.681 4.103,4.608 0.708,11.209 -0.3,16.545 0.115,1.252 -0.568,2.418 -0.446,3.671 3.745,-3.066 8.187,-7.305 13.476,-9.096 1.366,-1.582 2.492,-3.709 4.943,-3.812 1.426,0.026 2.262,1.176 3.193,2.066 1.797,-2.088 3.261,-4.694 6.477,-5.026 1.455,0.339 2.502,0.744 3.807,1.475 1.337,-1.893 2.441,-4.559 5.13,-4.873 2.374,0.47 5.382,-9.219 10.43,-14.277 1.512,-0.772 3.675,-0.529 4.633,0.897 2.909,4.143 -0.198,8.667 1.806,12.454 -0.202,2.263 -0.753,4.463 -0.773,6.639 2.208,-1.401 4.48,-1.428 6.72,-0.789 3.273,0.292 3.407,4.037 5.086,6.122 1.588,2.126 3.031,4.642 4.441,6.625 0.851,-2.762 1.852,-5.922 4.443,-7.174 4.817,-1.146 8.856,2.83 12.424,5.495 2.623,-0.941 5.391,-2.054 7.81,-0.517 6.139,3.815 11.474,8.52 17.14,12.76 -0.664,-4.708 -2.08,-9.403 -2.304,-14.088 1.602,-1.795 -0.121,-4.724 0.39,-7.018 4.638,-3.02 -1.43,-8.166 0.816,-12.419 0.651,-1.481 1.442,-3.136 3.357,-3.002 0.83,0.174 1.626,0.259 2.559,0.393 -1.264,-4.334 -5.004,-8.881 -2.215,-13.151 1.991,-1.635 3.931,-0.428 5.973,-0.242 -3.503,-6.713 -9.068,-11.432 -12.89,-17.89 1.838,-4.94 7.511,-2.44 11.346,-2.836 0.932,0.135 1.812,0.396 2.834,0.489 0.114,-1.461 -1.469,-3.806 0.56,-5.136 2.221,-2.824 6.995,0.608 7.594,-4.212 2.865,-1.375 5.756,-1.462 8.614,-1.633 -0.012,-1.518 0.172,-3.555 1.544,-4.381 5.534,-2.981 11.155,-2.307 16.777,-1.637 -3.963,-4.551 -10.407,-6.6 -13.662,-12.006" /></g></g></g></svg>